/* XPM */
static char *result[] = {
/* columns rows colors chars-per-pixel */
"64 64 256 2 ",
"   c #060807",
".  c #0A0906",
"X  c #0D0B0B",
"o  c #120C0A",
"O  c #0A100F",
"+  c #16120E",
"@  c #141413",
"#  c #181615",
"$  c #1B1916",
"%  c #1C1B1A",
"&  c #2F190D",
"*  c #251B17",
"=  c #351D13",
"-  c #35230E",
";  c #26221B",
":  c #23201F",
">  c #2C221C",
",  c #3B2514",
"<  c #33241B",
"1  c #372518",
"2  c #161E23",
"3  c #112D31",
"4  c #232322",
"5  c #2B2826",
"6  c #2C2924",
"7  c #362A27",
"8  c #38332C",
"9  c #2B3333",
"0  c #3B3835",
"q  c #461D12",
"w  c #442A15",
"e  c #472917",
"r  c #432C1B",
"t  c #562715",
"y  c #4E311C",
"u  c #56351C",
"i  c #6E2E19",
"p  c #442C24",
"a  c #483629",
"s  c #563827",
"d  c #5D3C22",
"f  c #473C37",
"g  c #533A36",
"h  c #623E24",
"j  c #6B3A28",
"k  c #653D35",
"l  c #274738",
"z  c #5A412C",
"x  c #48443C",
"c  c #4D443C",
"v  c #58463A",
"b  c #644126",
"n  c #664229",
"m  c #6B452D",
"M  c #674839",
"N  c #71503C",
"B  c #033947",
"V  c #1D3B46",
"C  c #043D54",
"Z  c #283B47",
"A  c #1B3D61",
"S  c #4F3E44",
"D  c #03424B",
"F  c #024454",
"G  c #064657",
"H  c #024B5C",
"J  c #114A54",
"K  c #324D54",
"L  c #024D63",
"P  c #044E69",
"I  c #025265",
"U  c #02556B",
"Y  c #0A576A",
"T  c #025B6E",
"R  c #12546A",
"E  c #035572",
"W  c #025C73",
"Q  c #0A5B77",
"!  c #025D79",
"~  c #135E76",
"^  c #2B5A69",
"/  c #026375",
"(  c #0E6870",
")  c #02637B",
"_  c #0A667A",
"`  c #036A7D",
"'  c #16687A",
"]  c #2A6C76",
"[  c #494745",
"{  c #4D4B45",
"}  c #544B44",
"|  c #594943",
" . c #544D4B",
".. c #5A4D4B",
"X. c #54524D",
"o. c #5A524D",
"O. c #5B5C4C",
"+. c #4D5054",
"@. c #5B5452",
"#. c #585757",
"$. c #5D5954",
"%. c #664D46",
"&. c #794B44",
"*. c #695549",
"=. c #785847",
"-. c #655A54",
";. c #635C5B",
":. c #775A54",
">. c #5B635B",
",. c #7B664D",
"<. c #63615C",
"1. c #6B635B",
"2. c #75655A",
"3. c #535B64",
"4. c #635D62",
"5. c #576B6D",
"6. c #646463",
"7. c #696867",
"8. c #766B65",
"9. c #6D716E",
"0. c #77726D",
"q. c #6A6B74",
"w. c #6A7377",
"e. c #737373",
"r. c #797976",
"t. c #75767B",
"y. c #7C7C7C",
"u. c #8A3925",
"i. c #9D4726",
"p. c #8A5439",
"a. c #865B4A",
"s. c #8A5A4E",
"d. c #89644C",
"f. c #96664B",
"g. c #886755",
"h. c #976A55",
"j. c #8A725C",
"k. c #99725B",
"l. c #A46D4C",
"z. c #A56D54",
"x. c #A77558",
"c. c #B37A5B",
"v. c #996960",
"b. c #877668",
"n. c #8B726A",
"m. c #987968",
"M. c #867B76",
"N. c #A77A67",
"B. c #A9776E",
"V. c #B47C63",
"C. c #F07860",
"Z. c #798077",
"A. c #99816A",
"S. c #86827E",
"D. c #978577",
"F. c #B88467",
"G. c #AE8C76",
"H. c #A78A78",
"J. c #B68A75",
"K. c #C38B6F",
"L. c #C5967C",
"P. c #E9946E",
"I. c #055D80",
"U. c #036582",
"Y. c #026B83",
"T. c #0B6985",
"R. c #036D8A",
"E. c #037285",
"W. c #02738C",
"Q. c #08758A",
"!. c #127388",
"~. c #12708B",
"^. c #027B94",
"/. c #067894",
"(. c #337486",
"). c #457B8A",
"_. c #697A84",
"`. c #777D86",
"'. c #7C7D83",
"]. c #817F84",
"[. c #05849C",
"{. c #138293",
"}. c #348794",
"|. c #0588A4",
" X c #0B95AC",
".X c #2F91A4",
"XX c #07A6B7",
"oX c #508B94",
"OX c #7A8487",
"+X c #7C838B",
"@X c #768994",
"#X c #5393A8",
"$X c #61A4AE",
"%X c #71AEBA",
"&X c #16B6CC",
"*X c #31B7C5",
"=X c #449FC4",
"-X c #51B4C8",
";X c #74B8CA",
":X c #2AC4D5",
">X c #1BD0E7",
",X c #31CBE3",
"<X c #53D8EC",
"1X c #67D4E1",
"2X c #6FD7E4",
"3X c #74E8EF",
"4X c #878687",
"5X c #948B87",
"6X c #97938D",
"7X c #848B93",
"8X c #888C96",
"9X c #88939B",
"0X c #969798",
"qX c #AC9288",
"wX c #BB9686",
"eX c #A89C96",
"rX c #9DA29C",
"tX c #B3A49A",
"yX c #8A99A4",
"uX c #979EA4",
"iX c #A19CA1",
"pX c #9AA4A8",
"aX c #94A7B2",
"sX c #98A9B6",
"dX c #A5A7AA",
"fX c #ADAFB4",
"gX c #B7B7B9",
"hX c #CA9D86",
"jX c #D09D8B",
"kX c #D5A48A",
"lX c #C9A797",
"zX c #D2AA94",
"xX c #E5AE97",
"cX c #C6B6A9",
"vX c #D9BAA8",
"bX c #E2B7B0",
"nX c #D9C3B6",
"mX c #E9C8B7",
"MX c #97B8C5",
"NX c #ABBAC7",
"BX c #92C9D2",
"VX c #B3C7CE",
"CX c #9CDBE6",
"ZX c #9FECF7",
"AX c #AEF2F4",
"SX c #CECBCB",
"DX c #D7D7DA",
"FX c #EBD5CB",
"GX c #F8E7D8",
"HX c #C9D7E5",
"JX c #DCDDE3",
"KX c #E0DCE0",
"LX c #DCE4E9",
"PX c #D1F5F9",
"IX c #E6E8EB",
"UX c #F3F0EF",
/* pixels */
"7X+X7X7X`.q.;.3.`.aXNXNXNXNXNXNXfXdXpXpXpXfXfXfXNXVXSXSXDXLXDXIXLXLXLXLXIXIXUXUXKXSXdX4X].0.8.1.1.8.A.A.D.A.,.N d d b h b h d d ",
"+X+X+X+X`.q.$.#._.yXMXNXNXNXsXsXpXdXpXpXpXdXfXNXNXSXHXJXKXIXIXIXLXLXLXLXLXIXIXIXDXVXdX4X].0.8.1.1.8.S.D.D.A.,.*.d z h h h h d d ",
"+X`.+X+X`.q.$.X.w.yXsXNXNXMXsXpXpXiXpXdXpXdXdXdXgX9.6 4 2 4 # 4 9 gXJXDXJXJXLXLXDXNXdX].M.0.8.7.2.8.8.A.D.A.,.N z h b b b h h h ",
"+X+X+X7X`.9.<.+.q.yXsXMXsXsXaXpXuXuXuXuXpXdXq.* 4 5 8 6 $ $ 5 5 ; $ * X.DXDXJXJXSXgXuX4X'.e.8.8.2.8.8.A.b.j.,.m u d h h h h h h ",
"+X+X+X7X`.e.<.X.7.@XaXsXaXaXyXyX0X0XuXuX6X2 2 $ 9 $ * 0 % $ # % 5 6 5 * S +.JXDXSXfX0X4Xy.r.q.8.Z.A.A.b.2.,.v z u u h h h b b h ",
"7X+X+X7X`.w.>.X.7.@XyXaXyXaXyXyX8X0XdX* 4 4 4 % X . % $ 4 4 5 % * # 4 : % f f fXVXfX0X'.r.0.1.8.S.D.D.b.O.O.z x y u d h b b b b ",
"+X+X+X+X`.e.4.X.4._.9XaXyXyXyX9X8Xy.% 2 @ @ O X # O O @ # $ 5 $ # 5 $ # 6 8 S f 6XfXpX6XS.M.8.0.D.H.H.A.N v z y - u u h b b b b ",
"+X+X+X`.].e.4.+.4._.7XpXyX9X8X8X5 4 # % % % % % % % $   % 4 O 4 f @ $ X * S 8.f 7 4XeX5X4XM.8.8.D.H.qXA.,.z a a w w u d b b b b ",
"+X`.+X`.'.e.<.+.#.q.@X9X9X8X8XOX@ X $ @ + @ @ @ $ % 2 @ 5 @ $ $ 4 8 # # ; 7 7 | a 7 eX5Xr.7.-.-.S.H.L.A.,.v z y w w u d h b b b ",
"`.t.'.OX'.q.<.X.@.q.`.8X9X8XOX4X4.O . O 4 @ # # # $ $ 4 x [ 8 + : +.5 0 9 0 x M.x o.M.r.$.{ c } Z.H.G.A.,.z z 8 w y u d h b b b ",
"'.`.OXM.y.e.<.X.o.7.`.7X7X7X'.8X.   o o O % $ $ $ + @ % @ @ 6 f $ [ Z f O 6 ..5Xr.& M.S.[ 7 5 7 2.D.G.D.,.v z 8 w y u d b b b b ",
"].t.'.'.y.e.6.@.@.6.t.7X8XOX4XX $ + g a 7 * + + % O % @ @ @ + 6 0 6 x 8.[ 8 -...-.x 7 SXf 5 $ 5 O.A.G.A.,.v z a w w u d b b b m ",
"'.`.'.t.'.e.<.o.@.6.`.7X9XOX+X2 $ 1 &.j.%.M a = - ; $ # # * * * & > - + . 8 | 5X0 r.c FXo.; % % O.0.H.A.,.M x a w w u d b b b b ",
"'.`.'.y.y.e.6.X.@.6.t.8X9X+XOXO + :.h.x.f.p.&.M 1 1 * $ * * * 1 r a p 1 o + -.5Xc >.5XeXDX* 9 4 x 8.S.A.A.O.v a w w w u d b b b ",
"'.t.t.y.y.e.6.@.X.6.+X9X9X7XOX9 * j.m.x.k.f.f.f.a.=.M g a s j m N m s 8 7 * @.4X{ -.8.qX5X8 0 8 x -.8.A.j.*.v a w w w u b b b m ",
"'.t.y.y.y.9.6.@.@.7.7X9XyX7Xw.7.> m.N.k.k.z.z.h.h.h.h.d.p.a.a.N =.a.M 1 6 { f 0X7.r.5XtX5X .{ [ } O.1.8.8.O.z y w w w u d b b m ",
"'.t.t.y.'.e.6.$.o.6.7XyXyX8X7Xt.* j.x.k.k.l.l.z.l.z.h.f.p.p.f.f.k.&.s a > 7 f M.;.6X0.tX8.;.;.-.} *.-.8.2.*.z y , , w u u b b n ",
"'.t.y.t.y.r.7.$.@.7.+X8X9X8X7X8X+ h.x.h.z.x.l.x.x.z.l.p.f.l.s.s.f.h.d.a 5 0 4.1.S 0.M.eX8.4.;...| o.-.2.2.*.v a w w w u d b n M ",
"'.t.t.M.y.r.7.-...7.'.`.yX_.@X7X< g.m.V.c.l.x.c.V.x.c.z.p.f.h.h.wXlXqXm.p S 6.7 ..6 M.qX8.2.4.@. .o.-.2.2.*.v a r w w y s b M :.",
"'.t.t.r.S.t.7.$...4.q._.`.w.t.`.7.M g.m.F.c.x.K.V.V.k.h.d.z 7 < g n.vXwX&.*. .M.-.f %.nX7.7.4.@...X.-.2.2.*.v a 8 , , y u h *.0.",
"'.t.t.r.y.y.7.;.X.;.6.q.5.6.4.t.y.> = p M A.f.F.g.r a * & & y g %.m.mXnXbX:.5X6X*.m L.V.H.<.@.{ X.X.o.1.2.*.v a r , , y u z *.D.",
"'.t.t.y.y.y.7.;. .o.6.q.4.6.@.q.S.%.*.p - a n A.j e z *.M y q m v.h.lXFXmXtX6XeX%.z.i.i.mXX. .{ ..+...-.*.*.v a r , w r u u %.M.",
"'.t.r.y.OXy.9.<.....4.4.3.q.+.7.M.m.s.S | p M v.B.j j a.&.%.7 p u h.s.lXFXlX5Xn.s.L.f.P.xX[ { { +.X.o...v o.z 8 r r w w y d %.8.",
"y.e.r.y.4Xy.9.-...%.%.8.q.3.+.q.q.b.%.cX5X& M =.J.t &.j qXFXp p s g.s.lXGXnXM.4Xk u.i.c.mX{ { } X.{ {  .{ } v z r , , r y s %.j.",
"y.e.M.4X7X4Xr.<.v k %.%.4.@...+.#.eXN.=.=.g.a.F.V.p.p.p.s.a.N N s.a.k.wXFXGX8.5XFXu.C.c.mXv X.$.$.$.$.X.o.| v a p , , , y u %.8.",
"e.r.S.8X0X4X0.1.o.M &.:.:.4...S f lXhXJ.z.h.N.xXc.p.f.l.l.x.f.l.h.z.F.hXFXGXn.SXvXp.i.xXcX%.o.<.<.<.$.#.o.o.| f a 1 - w y s M 8.",
"7.9.4X0XeX5X8.4...k k %.&...S p 7 lXlXjXF.K.jXkXc.l.f.z.x.c.F.F.V.K.V.wXSXGX:.gXFXp.GXN.- } O.1.1.1.$.@.} v v f 7 1 - 1 e u %.8.",
">.7.y.6X6XM.8.-. .S p g S S p 7 6 wXkXhXhXL.hXkXV.c.l.c.z.c.K.K.K.K.c.J.bXmXGXGXtXz.J.GX0 v O.-.;.-.O.X.X.v c a 1 1 - , e a M 2.",
"O.#._.`.4Xe.:...S 7 < p s i s p = G.L.hXkXhXkXkXV.V.V.p.F.c.V.K.F.F.A.F.xXnXFXFXA.zXN.cXc c  .-.-.-. . .} c c a , = = , e s v 2.",
"[ +.3.5.q.4...%.[ 8 > q i i i i y &.L.kXkXJ.hXkXK.K.V.z.c.K.V.V.F.F.x.x.vXmXvXGXnXH.bX> 0 }  .$.o.o. .{ { v c a 1 = & , e y v 2.",
"c [ K K ^ +.+...[ 0 4 q t i i u.t q K.L.kXF.xXhXJ.J.N.V.z.V.V.c.l.x.x.A.zXvXnXFXUX6 * 8 0 c  .o.o.o. . .c c g a 1 1 & , e y v *.",
"r 7 0 Z V K +...[ f 6 7 q i i u.i i J.L.L.L.L.wXB.N &.N h.V.V.z.x.l.l.A.lXzXnXFXUXVX% 9 8 v } ......{ { c c f f 1 = = - e y g | ",
"f S +.Z Z Z K { S S 7 7 = t t i i t g.F.hXJ.B.g.:.s.s.s.d.f.F.z.l.l.A.J.hXlXvXFXUXK BX4 l c x x X.{ { x f f g a p 1 - = , e p z ",
"3.q.q.+.Z 3 Z 0 f 0 7 5 = q t i i e q G.J.B.G.qXv.qXv.h.g.a.f.k.f.f.x.G.zXlXnXnXUXOXJ HX8 x x x { { [ x S f f 8 8 1 = = 1 w 1 7 ",
"_.`.5.+.9 3 3 9 7 7 7 > & & q q q = < m.J.N.B.&.s.&.&.j g.m.g.h.f.d.k.G.tXzXzXnXGXVX@ 2X7.0 f x f K 0 0 f 0 0 8 7 < < = < - < 6 ",
"@X@X_.+.9 @ % 2 5 7 5 ; = & = q q = > 2.N.g.B.B.v.v.v.v.a.N j.h.,.k.A.H.wXhXcXmXmXIXV :XPXl 0 x 0 0 0 0 0 0 8 8 7 > * 6 < < < 8 ",
"w.3.K 0 4 @ % 5 S S 5 * - - & & & * 7 7 A.B.J.B.B.v.v.&.N v.g.:.N j.A.D.wXtXG.lXnXIXR >X3XPX>.9 7 9 9 9 0 8 8 5 6 4 6 * ; < 6 7 ",
">.>.<.K 5 O @ 9 S +.f = - - = * # * a g b.m.qXB.v.s.s.s.k.g.=.:.M ,.j.H.H.b.j.A.L.pX_ >X:XAXPXBX3 > ; 5 5 5 5 : * * * * ; ; 6 6 ",
"4Xy.M.@.5 O + 7  .-.S < 1 , = # + * 8 g | b.G.J.H.H.v.h.k.g.=.M N ,.A.j.*.*.f.d.F.3 XX>XXX:XAX.X!.w.@ + O O @ o o + o @ # # $ * ",
"eXeXqX0.c + # ; X.-.} 8 a 8 8 8 7 8 x ..$.1.m.G.m.N.n.g.,.*.M %.N c v v N M =.p.O./ XX&XXXXX%X;XQ ] BX9 S 0 4 X # O X + o o X X ",
"eXqXqXj.c 5 8 0 x $.$.{ { x v  .+...<.4.%X] 5.b.qXm.n.:.%.| 1.g 8 v v v M N N -.D E. XXX X` oX] =XI ] AXLXx { 5XgX  X O O X X X ",
"D.D.M.1.} c } } X.#.>.$.;.<.;.;.6.5.oX.XT.Y.!.^ 3.X.v } g f g v v v v v m =.*.x ( {.[.[.Q.T BX] {./ ( -XAXAXPXK 8 KXX . O @ X   ",
"-.;.:.-.o.$.<.<.;.;.;.4.7.6.9.t.@X(.[.` E.{.` .X~ O M.:.*.*.*.%.v %.%.M *.N $.^ / Y.Q.E./ ^ ^ ( T _ I _ <X1XZXZXVX9 DX  O   X . ",
" .o.$.$.$.>.1.8.8.e.t.t.M.4X@X}.) /.E.T.U.{./ 1X~.3 *.g.g.:.:.%.%.M M N :.=.K U./ ) ! ! Y fXR / Y T ( ( E.:X<X<X3XAX5.DXX X     ",
"0 x [ { { +.e.4X6X0X0XeXuXNX~ _ E.Q.U.Q W.[.E ;X/.J & m.j.=.N N =.=.=.a.,.3.~ ) U./ Q Q R 5.Y W E U I H .X!. X,X&X,X2XBXJXX     ",
"% 4 5 8 8 [ r.rXfXtXfXfX%X' _ W Q.` ` ) ^.^.R .X|.Y   :.A.j.j.j.d.a.g.k.6.^ ` W ) / Q Y CXR ) Q E U I Y L F .X&X>X,X,X<XMXNX    ",
". X X o O 8 Z.dXcXVXVX(.' ` T ) W.` W U.^./.' }.|.Q.O 1 N.k.p.g.=.d.h.8.] ~ _ / W T Q ] 5.( W W T T T I H H Y {.*X<X,X<X3X@XNXO ",
"X . X o X 8 S.dXgXVX] / Q.T U ` Q./ W W.|.^.$XE.|.^.3 ; N g.j.d.d.j.h.5.T.Q ) W T ) T VXQ / W U T T I I I H G G ` <X<X<X2XZX+.VX",
". o X o o 6 r.dXgX).( ) T.U I E.I.E ! Q.|.R.;X/. X|.J # y d.d.d.,.j.t.(.R.) W ! / Q ^ 3.~./ T W E U U I I H H G F Y ZX-X3XAXPXO ",
". X o X O ; 9.rXgXH W _ _ I T E.! E I.W.|.R.;X/. X[._ 5 8 =.d.d.g.j.(.R./ / Q U.U.R AX~ _ W W W W T U I I H H G D H I 3X:X*XAXBX",
". o . o o % 7.rXMXT I W ) L ! U.! E U.^.[./.-X|.|.|.Q.D a m =.a.,.).' ` ) ) ) Y.T #XA I.` / T T T T W U I I H G G G G H *X,X3XAX",
". . o X . $ 7.pXoXI ( U / P T.) E ! U.^.[./.;X|.|.{.{.( K X.M M ] !.Y._ ` ) Y.) T VX~._ / T W W W W W W I I H G F D G D Y {.*X3X",
". . o X o @ 4.0X' U Y U W E T.E W ! R./.[./.!./.U.P E ' ] ] ^ ~ {./.W.Y.` ` R._ #XK ^.) Q W W / / W ! T I I H H F F D F Y XX:X<X",
". . X X . @ 4.9X' W E P / W Q E E ) R.^.|.^.E.R.Q.T.~.] HX] R P Y #X/.E.` T.T.( VX' / W ! ! ! ! ) ) ) Q I H H H F F F H !.|.&X<X",
". . o X . O 4._.` / ~ P / ! E E W U.R.|.|.^.E.W.W.|.|.}.HX~.~ U (.] I.U ~.T.I.#X3 T.` Q / W W / ) ! ! _ I H H H F F F C Q /.*X<X",
"  . . . X X @.(./ Q U U / E U W ! Y.R.[.^.W.E.E.W.^.[.}.$X! ~ U.CX_ I.R T.Q ~ BXR U._ E T T W W ) ) ) U H H L H H F D C I W. X>X",
"  . .     O #.] T _ P U W U U ! ) Y.W.[.^.W.R.R.Q././.#X(.! Y.~.CX~.R.T.W.U._ W Y.U.) W T T T W ) ) _ H H L L H H D B D D / |.&X",
". . . O .   +.' / _ L T T U U ! ) Y.W.|.^.R.Y.R.Q././.CXQ / /._ %XT.R./.W.U.) R./.U.! E T T T W ) U.R F G G L P F D B D D T Q.XX",
"    . . .   K ( / / I T U P W ! ) R.^.[.W.R.U.R.W.E.!.AX(.$X! ' (.W.Q.^.` ! _ Y.R.) W W T T T W ) _ H D G G L G D B B B D Y E. X",
".     O     J !.I / T / U U W ) Y.R./.[.E.Y.U.W.W.^.~.VXI.tXMXoXU.^.|./.! ! ` R.R.W T W W / W W ) ) D C I H P H D B B D C I ( |.",
"O o .   . . J _ E P _ Y I U W U.Y.R.^.[.Y.Y.Y.W./.R.T.%XR.^ T.CX~.R.|.Y.! ) U.E.Y.W W W W W W E ` W B F H G Y H B B B B F ' I [.",
"; ; * * ; % K ` _ C ~ ( I U ! Y.Y.W.[./.U.U.) W.W.R.] ).Y.Q.Q.CX/.W./.I.! ! ) R.! W U U U W U E _ L 3 G F G L G B B B D C ] D [.",
"< 7 7 p 8 8 J ` _ C ' _ U Y ) R.Y.W.^.W.U.) ) W.Q.Q.}.] T.R.~.CXW.{.Y.W W U.Y.Y.! E E U W T U E ! B B G F L C L B B B F J B D {.",
"< < 7 a x x K ) ) _ / ` P R ` E.U.W.|.Y.U.U.U.W.W.Q.$X/ ` ` Y ;X|./.! E ! ) Y.) W U U U U Y I E W B B G C L G G 3 B C C C 3 B T."
};
