/* XPM */
static char *result[] = {
/* columns rows colors chars-per-pixel */
"64 64 256 2 ",
"   c #060602",
".  c #0C0B02",
"X  c #140D03",
"o  c #1A0E06",
"O  c #151104",
"+  c #1B1305",
"@  c #1B150A",
"#  c #19170C",
"$  c #1A1B15",
"%  c #1B1B15",
"&  c #271809",
"*  c #231B0C",
"=  c #331A0D",
"-  c #291E12",
";  c #371C13",
":  c #1F2213",
">  c #35260C",
",  c #342B0F",
"<  c #292318",
"1  c #332414",
"2  c #3A2314",
"3  c #3D2419",
"4  c #362818",
"5  c #3C2B1C",
"6  c #2B2C26",
"7  c #3C2D21",
"8  c #37352A",
"9  c #3B3C34",
"0  c #451D19",
"q  c #551E1C",
"w  c #44251C",
"e  c #48271A",
"r  c #442B1D",
"t  c #54261D",
"y  c #4B3515",
"u  c #48351A",
"i  c #611F20",
"p  c #4C2522",
"a  c #462B21",
"s  c #4B2A23",
"d  c #532523",
"f  c #582826",
"g  c #542C29",
"h  c #5B2C2B",
"j  c #4B3423",
"k  c #483727",
"l  c #543A25",
"z  c #57382A",
"x  c #4D3C31",
"c  c #5C3631",
"v  c #662A2A",
"b  c #63362C",
"n  c #722F30",
"m  c #653432",
"M  c #6B3433",
"N  c #693A38",
"B  c #77393A",
"V  c #3E4036",
"C  c #4F4619",
"Z  c #7A631E",
"A  c #584429",
"S  c #54542E",
"D  c #454537",
"F  c #5A4635",
"G  c #565C3A",
"H  c #64442D",
"J  c #664835",
"K  c #764A38",
"L  c #675533",
"P  c #76543A",
"I  c #5A6935",
"U  c #6A6935",
"Y  c #766F34",
"T  c #697837",
"R  c #7B3F41",
"E  c #4B4C46",
"W  c #56554B",
"Q  c #575A57",
"!  c #794442",
"~  c #6B5645",
"^  c #785945",
"/  c #685B50",
"(  c #5B6547",
")  c #7B6548",
"_  c #717050",
"`  c #717268",
"'  c #6D7474",
"]  c #737979",
"[  c #747C7C",
"{  c #813C3C",
"}  c #87563D",
"|  c #866C38",
" . c #883E42",
".. c #8A4649",
"X. c #94484C",
"o. c #865A47",
"O. c #945C47",
"+. c #974E52",
"@. c #8B5252",
"#. c #9A5357",
"$. c #A4554C",
"%. c #A5565B",
"&. c #88684B",
"*. c #96664C",
"=. c #8A7748",
"-. c #977848",
";. c #8C6754",
":. c #976955",
">. c #877657",
",. c #997559",
"<. c #A76B55",
"1. c #A96B50",
"2. c #A7745A",
"3. c #B8755C",
"4. c #A95D61",
"5. c #B35F65",
"6. c #857E67",
"7. c #9D7263",
"8. c #B6686A",
"9. c #B16B6E",
"0. c #AA7864",
"q. c #B67A64",
"w. c #BC6D73",
"e. c #C27B63",
"r. c #C87A79",
"t. c #778938",
"y. c #758E3A",
"u. c #778943",
"i. c #7D9644",
"p. c #7B8453",
"a. c #7A8571",
"s. c #8A923B",
"d. c #AF903D",
"f. c #92A93E",
"g. c #C69E3E",
"h. c #888649",
"j. c #869946",
"k. c #988956",
"l. c #8F9353",
"z. c #AE9250",
"x. c #8AA547",
"c. c #94A849",
"v. c #9AA656",
"b. c #9AB150",
"n. c #B0A94C",
"m. c #A9B64C",
"M. c #A6AA57",
"N. c #A8B758",
"B. c #B4BB59",
"V. c #8A866B",
"C. c #908B6B",
"Z. c #969968",
"A. c #948B76",
"S. c #889679",
"D. c #9A9679",
"F. c #B18D6C",
"G. c #BA8874",
"H. c #9BAA65",
"J. c #96A775",
"K. c #A7A766",
"L. c #B7A969",
"P. c #AAB665",
"I. c #B6BA67",
"U. c #A6AA76",
"Y. c #B1AB76",
"T. c #BBB977",
"R. c #C39D43",
"E. c #C9A850",
"W. c #C9866C",
"Q. c #C9906D",
"!. c #C68A75",
"~. c #D58C75",
"^. c #C89579",
"/. c #D9947B",
"(. c #C9B268",
"). c #C7AC78",
"_. c #C7B778",
"`. c #A9C34F",
"'. c #ADC358",
"]. c #B5C35B",
"[. c #BAC767",
"{. c #BDC275",
"}. c #D0C653",
"|. c #C5C866",
" X c #C3D26B",
".X c #C6C777",
"XX c #CAD279",
"oX c #D7D170",
"OX c #E4C86D",
"+X c #C37E81",
"@X c #7B8483",
"#X c #868D85",
"$X c #828B8D",
"%X c #8A9583",
"&X c #9B9785",
"*X c #858E91",
"=X c #899495",
"-X c #899595",
";X c #969D96",
":X c #A39785",
">X c #A29A85",
",X c #A59C8A",
"<X c #AA998F",
"1X c #96A180",
"2X c #A8A38A",
"3X c #A9A28E",
"4X c #B8B189",
"5X c #ACA592",
"6X c #AFA992",
"7X c #A7A399",
"8X c #B1AB95",
"9X c #B5AD99",
"0X c #B7B299",
"qX c #B9B29E",
"wX c #BCB6A3",
"eX c #CC8D8A",
"rX c #D99A86",
"tX c #E29D87",
"yX c #DCA48C",
"uX c #CFB18F",
"iX c #E4A38B",
"pX c #E5AA97",
"aX c #E9B29E",
"sX c #F5B49E",
"dX c #DC9EA0",
"fX c #CBB7A8",
"gX c #EBB7A4",
"hX c #EBB7AE",
"jX c #BDC184",
"kX c #C6C587",
"lX c #D3CC8E",
"zX c #D6D888",
"xX c #CCC995",
"cX c #D8D796",
"vX c #F2D591",
"bX c #DDE28F",
"nX c #E3E296",
"mX c #D6CAA9",
"MX c #D5D0AD",
"NX c #D8D2B9",
"BX c #E8D6B1",
"VX c #E5E4A9",
"CX c #EAE5B8",
"ZX c #FBE4B8",
"AX c #D8D5C6",
"SX c #DCD9D3",
"DX c #E6DBC5",
"FX c #DFE0D2",
"GX c #E9E3C8",
"HX c #EAE7D7",
"JX c #F3EDD4",
"KX c #ECECE5",
"LX c #F3EEE3",
"PX c #F8F3E6",
"IX c #F3F2EB",
"UX c #F8F8F6",
/* pixels */
"X X # $ $ 9 Q ' ] [ ] Q W F A j l l l C A Z | j.v.m..XkXB.I.K.k.K.D.7X<X&X&X<X4X(.E.g.g.g.R.R.(.BXLXUXUXUXUXKXSXqX&.-.z.(.uXmXmX",
"X + # % $ 9 Q ' [ [ ' ' ( S u A C C u S Y s.f.N.I.I.I.kXkXT.T.c.Z.D.7X7X<X7X<X9XQ.(.E.E.R.R.z.Y.MXLXUXUXUXUXIXSXqX) | z.).mXDXDX",
"O O O $ $ 6 Q ' @X[ [ [ G , y y C C S U j.m.n.I.I.].I.uXkXT.L.K.k.C.D.<X<X<X9X7XuX^.(.E.R.R.z.z.fXDXJXIXIXKXHXAX6X=.-.z.uXuXmXNX",
"+ X # $ $ 6 Q ' [ @X] Q D > y y L Y s.v.M.B.m..XxXxXxX{..XL.l.=.&.) >.>.6.A.:X<X4X).E.R.R.g.-.d._.mXGXIXIXUXUXKXAXfXD.-.z.E.(.uX",
"o O # $ $ 6 Q ' ] [ [ Q D , y S s.s.m.N.jXjXjX{.jX{.kX.XkXI.v.j.M.M.l.h.k.l.K.L.Y.L.M.s.g.E.g.g.R.).DXKXUXUXUXUXIXSX9X=.-.z.L.MX",
"X X O $ $ 9 Q ' ] [ [ Q F A U j.d.m.m.].kXxXxXlXkXlXXXI.{.uXkXk a - O * - 5 l A =.v.L.z.z.R.R.g.z.Y.mXHXIXUXIXIXKXNXD.-.-.d.uXMX",
"O + # $ $ 8 Q ' ] [ [ ` / Y s.n.m.m.B.{..XkXxXxXcXbXT G , I j 5 # + O - < & r 4 u &.>.z.n.E.z.d.=.k.NXHXLXIXIXIXFXmX0Xk.-.z.uXcX",
"X O # $ $ 8 Q ' [ @X[ a.h.c.n.B.B.].].[.{.kXxXcX* O . . * , - < X # + & & 1 a 1 F > A I.F.).z.=.} 4XSXUXUXUXUXUXIXAXuXZ.k.z.(.mX",
"o o % $ $ 9 Q ] [ @Xa.S.Z.N.].B.B.B.B..XT.xXmXD.@ X o * # 1 < 1 X - @ X X   F z F a _ o._._.L.v.v.wXKXIXUXUXUXUXIXHXAXD.h.n.E.uX",
"o % % $ $ 6 Q ' @X@X[ S.K.N.B.B.].B.|.{.{.4X8 + O O - - - 7 3 x 7 5 a 7 o @ - + F r u ^ F..X(..X{.xXKXUXUXUXUXUXIXSXNXD.-.z.E._.",
"o @ $ $ $ 9 Q ' @X@X@XS.H.m.B.[.B.[.[.[.I.C * X # @ 1 3 g H ! :.q.0.,.;.z - X 1 & - 5 5 &.L._.|.zXcXHXUXUXUXUXUXIXHXNX=.h.k.F._.",
"@ @ $ $ $ 9 Q ] @X@X@XS.H.M.N.P.N.[.[.I.u.* X .   5 b ^ *.<.3.e.q.e.~.!.q.K = 4 & < 1 1 H | lXlXbXVXCXJXLXUXUXIXLXDXmXU.k.k.k.mX",
"* - > < 6 9 Q ] @X@X*XS.J.N.P.P.[.].B.N.> 4 +   r b K O.1.1.e.e.W.~.eX/.rX!.h & x ; - 4 F &.Q.K.bXbXVXHXHXJXLXJXJXGXMXL.z.z.L.NX",
"= 2 4 < % 9 Q ' $X$X#XJ.H.I.}.(.OX}.m.c.- @ X o H H O.<.1.3.e.e.~.~.tXiXiXrXP - @ 5 x a j J z.uXkXbXbXbXVXCXVXGXGXVX.XL.z.n.(.mX",
", y 8 8 6 9 Q [ $X$X$X%XP.}.OXOX}.}.`.C * @ . j H { *.<.1.e.W.~.rXtXpXiXiXyX:.z 1 - r F z H F.2.uXcXzXbXzXbXnXcXnXcXkX(.E.(.OXvX",
"y S S S 6 V Q [ $X$X*X%XK.E.}.OX}.}.]., @ . o H K o.1.<.1.e.W.~.tXaXaXpXgXpX<.j * 7 k x A *.L z.Y.jXXXXXzXzXzXzXzXlX.X_.(.(.OXvX",
"Y s.u.I 6 9 Q a.$X*X$X%XK.M.E.}.}.`.`.& O   u J K o.*.1.e.e.W.W.rXpXpXaXgXgXF.J - & 5 l l P ~ U -.K.XXXXXXbXzXzXlXlX.X.X.XlXvXvX",
"c.[.b.u.8 9 Q [ *X*X*XS.Z.M.B.m.m.m.y + . . l J K O.<.<.<.e.e.~./.iXiXpXgXgX!.N - & 4 J ~ ) *.,.,.^.XXXXzXzXbXzXoX.X.X.XoXvXvXvX",
"P.[.N.u.8 9 Q @X*X*X*X%XD.v.v.c.f.f.y O . . l H } <.1.3.3.e.W.rXrXtXiXyXgXaXyX^ r & 1 F F &.*.P ).r K..X XbXbXXX.X|.I..XlXvXvXvX",
"[.[.b.u.9 V Q @X*X=X*X%XZ.v.c.c.f.t.y . . X u H P 1.1.3.3.e.~./.eXq.!.rXrXpXpX~.t 1 5 A P A =.) uXF.F.[. XXXXXXX.XI.L.kXvXBXvXZX",
"b.`.x.I 9 V Q @X*X*X=X%XD.v.c.f.f.y & . . # - @ - J O.1.3.K z j e J 7.G.G.rXpXpXq.r 1 O P k -.;.j F.H  X[.|.|.|.|.I.Y.uXmXZXZXZX",
"c.x.y.G 8 V Q [ *X=X*X%XY.B.z.f.f.S + .   4 H H z 1 c 1.e.*.2.o.N A &.^.rX^.aXpX!.k & & l F.;.,.,.,.uX[.'.'.|.(.(.(.xXmXBXGXJXJX",
"j.y.t.S 9 V Q @X*X*X*X&XY.L.B.d.d.y : # # A u F ~ o 1 ^ d Q.O.z & - 5 eX>.W.q.:.z @ X & o H F ).,.&.F.[.[.].|.|.I._.NXGXJXPXJXJX",
"y.y.t.S 9 D Q [ =X=X*X,X4X_.E.g.Z y -   < F : / & D & 3.o /.*.t ;.e &X7.H pXgXgXrXF @ & o z L L ,.,.k.(. X].].|.I.xXNXJXLXUXPXPX",
"t.t.t.S 9 D Q [ =X=X=X2X4X_.(.E.Z y S . 1 k k & 1 & K ~.eXiX3.1.@.2.3.yXmXaXvXaXrXk @ X o z ) P F.G.)._.N.B.B.I.B.xXCXHXLXPXPXPX",
"y.y.t.I D D Q [ =X=X=X;X4X_.E.n.Y 5 H < 5 u A j 3 ~ O.pXBXpX/.W.q.~.^.pXpXiXpXpX~.g X - - ^ 2 K :.F.z.T.I.B.N.P.I.uXDXHXIXPXPXPX",
"i.i.y.( D 9 Q [ =X-X=X;X4XT.I.n.| Y , * 5 l y f 5 a 3.iXaXW.t 3.0.H ; pXiXaXgXtX~.7 o X ~ J 3 ^ z.Q.^.I.N.N.P.I._.xXMXDXCXJXJXJX",
"y.i.u.( D D Q [ =X-X-X&XU.T.N.b.| L , @   H l y e J ~.gXaXtXtX~.~.~.iXaXhXgXsXrXq.- o o & L ~ ^ o.-.F.L.N.N.P.{.uXmXDXDXGXZXJXGX",
"j.j.u.( D 9 Q ] *X=X-X;X1X[.P.x.Y y > .   A z l e P rXiXtXsX/.e.~.pXdXpXgXaXaXeX0.7 = & 2 A l A &.F.).(.[.B.I.4XkXMXNXGXGXGXCXZX",
"y.i.u.G D 9 Q ] *X-X-X%X1XP.'.b.Z Y 4 .   F H z y e K /.8.~.~.e./.iXsXaXpXsXpX~.:.- 3 = r ;.l H F.,.F.(.[.I.T.T.xXMXBXGXGXZXCXVX",
"j.t.T G D 9 W ] *X=X-X;XJ.'.b.i.C T , .   7 J H f - K O.!.W./././.pXaXaXgXpXrXq.c 1 u = r ) y b -.} Q._.|.[.T.T.uXxXBXNXCXCXVXVX",
"s.t.U G D 9 Q ' *X=X-X-X1XH.'.b.y.Y , O   O L A u k ~ J :.0.%.q.iXtXaXsXrXiX0.@.:.e = e 2 ^ l l >.,.-.L.].[.[.{.T.lXxXVXBXVXVXvX",
"y.y.I I V 9 E ' @X-X;X;Xa.H.b.b.j.h., O   @ F < & 3 F P <.o.J :.:.tXpX~.rXG.F.! o.r e e 1 u J H P ,.=.).|. X{..XT.kXzXcXnXnXnXnX",
"u.u.y.I V 9 Q ' @X;X@X;X1XJ.b.N.P.j.C O # @ S < k z O.$.5.r.W.K <.:.eX!.F.G.:.0.o.3 l j 5 2 J P L ) P ^. X X X.X.XXXXXzXzXbXbXbX",
"I y.y.I I 9 Q ' @X;X;X@Xa.b.b.b.j.j.C * , : , 4 r = ! ..~.w.8.:.o.O.rX2.&.!.0.*.^ H f u z 5 J A o.A 2._.|.[. X X|.XX X XoXoXoXoX",
"I y.y.I V 9 E ' @X-X;X@Xa.a.x.i.x.v.C @ * . + - l f  .$.r.tXrXW.!.O.^.G.0.*.@.J 5 K H H F k r P L P -.Q. X[.XX X X[.[. X X X X X",
"y.y.y.y.V V Q ' @X-X-X-X%Xi.x.b.H.j.l.O O O & 5 j u F z :.1.W.W.!.:.!.0.G.o.;.~ J ^ N = j J A l *.*.K =.L.[.[.[.[.'.`.`.].`.]. X",
"i.i.i.u.( V E ' -X-X-X-Xa.J.x.b.b.c.t.S @ X & O 5 l r 3 z 2.W.Q.,.&.^.!.o.0.~ ~ ^ o.K y r u j u z -.A L [.].].].[.'.`.`.`.`.'.'.",
"i.`.x.i.( 9 Q @X-X-X-X-X%Xi.i.b.c.x.j.C 5 @ , + * k 5 z J O.G.0.^ ~ 0.~ :.~ g o.*.O.*.2 l e * 7 a 2.>.P B.'.].[.'.'.b.b.P.[.[.'.",
"b.b.x.i.Q 9 Q @X@X-X-X-X-Xi.i.i.x.x.C t.C > 1 O O # 7 c b 7.x H z ~ ~ ) b x ^ 7.3.} O.A H j 7 < L P ) K.m.'.'.'.'.`.b.H.P.P.{.[.",
"f.x.i.y.I 9 E a.*X=X-X-X@Xa.i.i.x.i.y.t.U u 4 y _ & * 5 u L z ~ x k J / A ^ 0.*.W.3.1.b r + X 7 H P =.M.N.B.].].P.H.N.H.U.4XY.P.",
"x.f.y.y.( 9 V ' *X-X-X;X%Xa.i.i.i.x.j.u.t.U S A , * O - 6 k 2 D x a F a H b ;.G.*.O.P b a X 2 5 A ) >.l.v.N.B.I.P.H.Z.D.D.D.D.J.",
"i.i.y.I E 6 E a.*X-X;X;X%Xa.i.i.i.i.i.i.t.u.y U , Y 8 O @ < k F a - a ^ ;.&.G.G./.~.1.> 5 4 k y k.F ,.Z.C.Z.Z.v.H.C.D.S.A.S.A.A.",
"y.y.y.y.G 9 E Q *X;X-X;X;XS.i.x.x.x.l.i.l.h.h.y S l.C : X # % < x j ~ 7.,.G.eXrXyXiXW.l . > ;.F ` L F.A.C.C.h.k.p.C.A.D.V.V.V.A.",
"T y.u.T ( ( ( ' &X;X;X;X;XS.Z.H.Z.Z.Z.C.Z.C.Z.>.J V.+ , 1 x ^ P P P :.0.eXyXrXaXaXgX~.2.> o 2 N b o.o.G.A.V.6.h.=.C.A.&X6.6.6.6.",
"I _ p.V.a.a.V.S.&X&X&X&X:XD.Z.D.S.C.D.D.D.&XD.6.V.>.D 5 8 x ;.0.;.*.G.^.rXpXpXgXBXsXiXF.; &   X + = o.hXC.a.>.| s.k.A.V.6.` ` _ ",
"t.T C.D.D.:X,X:XD.>X>X:X:XD.&X&XD.:X,X:X:X:XD.D.C.W / k 7 l 7.0.K 2.!.rXrXpXaXhXgXaXyXv i v ..M h M @.7.r.hXU Y | >.V.V.6.` >.6.",
"I u.C.2X3X2X2X2X>X:X2X,X,X,X>X,X,X2X,X>X:X&X,X:XD.V.4 k k F 2.,.o.0.w.!.rXpXpXgXaXpXn i v %.v M M M n @.@.+XdXC.Y _ _ 6.6.6.6.V.",
"i.i.S.2X6X6X2X2X2X>X3X,X5X5X3X,X3X3X7X,X&X,XD.A.C.;.1 5 H ! :.2.o.q.r.!.eXyXpXaXeXn M i ..m m R M M ! R eXw.9.dXfX` ` A.A.] 6.6.",
"i.Z.J.2X6X6X5X2X2X2X5X5X3X3X3X3X2X3X5X,X:X&X>X:X_ ` 7 6.J ~ ;.;.^ q.G.!.eXyXpXi B n v n R m v h M h h R ! ! @.9.<XeXdX&X&XV.V.6.",
"x.v.U.2X6X6X6X2X2X2X5X5X3X3X7X,X<X5X7X:X,X:X:X:XC.F X &X~ o.;.~ o.0.G.G.^.uXv v q M ..M d d g f g g g N h M R +.X.5.eXdXfXC.&XD.",
"c.v.U.4X8X6X6X2X3X5X5X5X3X5X5X3X,X3X,X,X&X:X>X>X&XV.A.:XL :.o.J ,.0.G.W.0 v v q R v v R h m c h c h h f M m ..+.4.#.r.w.dXDXD.D.",
"b.P.U.6X8X8X6X6X3X5X6X5X7X5X5X5X3X3X3X,X&X:X,X:X&XD.A.w w &.7.F ;.0.b v f f i N R m h m q g h h p m t f N R +.@. .#.w.9.eXhXhXV.",
"N.H.U.4X8X8X8X6X5X5X6X6X5X5X5X5X5X,X3X:X,X:X:X<X&Xc 2 = k ;.;.l c d t q d R M m m f h h R v 0 g e d N d +.B +.@.X.#.8.5.+XeXdXdX",
"N.N.U.8X0X0X8X6X6X5X6X6X5X5X5X5X5X3X5X,X:X:X,X_ 2 2 w w ; b e 0 0 p 0 m m h m m h f p m h h p ; d f f ..{ ..4.X.5...+.w.8.5.eXhX",
"b.H.U.0X0X0X0X6X5X6X8X6X8X5X5X2X5X5X,X&X:X:X7 ; ; ; r ; w ; 0 ; ; c v N g N m s R h N R c d p ; f p B ..n ..R ..+. . .5.5.5.dX+X",
"H.U.1X8X0X0XqX8X5X8X8X8X5X6X5X5X5X3X3X:X&X3 ; 3 - 0 p ; ; ; ; g d g h g h h c h m d R d 0 0 R R 0 d ..#.R  .R ..#. .%.+.w.%.w.eX",
"0XjXwX8X0X0X0X8X8X6X8X8X8X8X6X5X5X,X3X,X/ 2 3 ; 0 7 7 0 ; w p p c d g h g d c v v m g 0 d h R v p R +XR f ..R  . .X.w.#.%.w.w.w.",
"MXNXMXwXwX9X0X0X8X8X8X8X8X6X6X6X5X5X<X:Xw ; w r 7 p p 7 p g p p g d p d d g f M h g h g R R R q p @.5.R v  . . .8.#.%.%.%.%.5.w.",
"GXFXAXMX0XwXqXqX0X8X0X8X8X8X8X6X6X5X5X` a ; = r a a ; w p 0 w s p p d h c g R f g m g d m i R ; 0 %. .m R #.R R %... . .w.%.r.5.",
"KXKXHXNXwXwXwXqX9X9XqX9X9X6X8X6X5X5X5X; s ; = r a w a p s g p g c p d g c p c p g d h m M +.R p d X.R h R  .f #.X. .#.X.X.%.w.w.",
"KXIXHXAXwXwXwXwXqXqXqX9X0X9X9X6X8X5X5X& w ; ; a a w a g s p w p g p N d h d 0 h m h p h h v v p d #.v h 4.v R 4.#.R X.4.4.5.5.%.",
"IXIXKXAXwXwXwXwXqXqXqXqX0X8X6X6X8X5X:X+ ; ; a w 3 a s p w s p g g g g p g h d h d h d d v R h p R #.m R %.0 4.%.R 4.+.#.#.5.4.r.",
"UXIXKXAXwXwXwXwXwXwXwXwXqX9X9X9X8X8X/ = w w a w a ; a g s p p p g p g c g m h h h v d R 0 i p g p w.d v R p %.f R 4.#.X.X.%.+.4."
};
