/* XPM */
static char *result[] = {
/* columns rows colors chars-per-pixel */
"64 64 255 2 ",
"   c #0F0704",
".  c #0E0A05",
"X  c #120704",
"o  c #130A05",
"O  c #190B05",
"+  c #130C08",
"@  c #190F08",
"#  c #1A1107",
"$  c #1C130A",
"%  c #1A180C",
"&  c #1C1811",
"*  c #22140C",
"=  c #241A0E",
"-  c #2B1B0F",
";  c #241B12",
":  c #271814",
">  c #2A1D13",
",  c #3C1D10",
"<  c #2C2213",
"1  c #282517",
"2  c #322515",
"3  c #38271A",
"4  c #35381B",
"5  c #382C22",
"6  c #3C3424",
"7  c #353633",
"8  c #5D1E19",
"9  c #442B1A",
"0  c #4F2F1A",
"q  c #483628",
"w  c #4C3A2D",
"e  c #583927",
"r  c #533C2B",
"t  c #623C2A",
"y  c #3B4021",
"u  c #5B412D",
"i  c #4A4432",
"p  c #5C4334",
"a  c #5A4638",
"s  c #575A34",
"d  c #64422D",
"f  c #664834",
"g  c #644C3C",
"h  c #6A4D3B",
"j  c #6B4F3A",
"k  c #754B35",
"l  c #75543E",
"z  c #5B6238",
"x  c #6C783E",
"c  c #5A3F52",
"v  c #554D4C",
"b  c #5D5A5C",
"n  c #654E41",
"m  c #655244",
"M  c #6B5344",
"N  c #6B5648",
"B  c #6D5A4C",
"V  c #735543",
"C  c #765945",
"Z  c #735C4B",
"A  c #7B5E4B",
"S  c #695551",
"D  c #755D51",
"F  c #6C634C",
"G  c #7B634D",
"H  c #6E7543",
"J  c #747B47",
"K  c #7B6353",
"L  c #7A6658",
"P  c #634B64",
"I  c #6B5468",
"U  c #715770",
"Y  c #765C78",
"T  c #6C6D6B",
"R  c #7A647B",
"E  c #87593F",
"W  c #855B47",
"Q  c #92534A",
"!  c #83634D",
"~  c #89644C",
"^  c #94674D",
"/  c #836955",
"(  c #896956",
")  c #846B5B",
"_  c #956B55",
"`  c #8A735D",
"'  c #95745C",
"]  c #9A745D",
"[  c #A26957",
"{  c #A5755C",
"}  c #856D61",
"|  c #8C7364",
" . c #897768",
".. c #937965",
"X. c #977866",
"o. c #9B7B64",
"O. c #947B6B",
"+. c #887378",
"@. c #A67C65",
"#. c #B7726A",
"$. c #70813D",
"%. c #7A8649",
"&. c #7B8653",
"*. c #82894D",
"=. c #89904D",
"-. c #828C53",
";. c #898A54",
":. c #8B9557",
">. c #939858",
",. c #959C5B",
"<. c #9A9D5C",
"1. c #A6945C",
"2. c #97A258",
"3. c #9BA25C",
"4. c #A1A55C",
"5. c #99836C",
"6. c #9A9C62",
"7. c #968474",
"8. c #9C8473",
"9. c #8F9170",
"0. c #A7836B",
"q. c #B5846A",
"w. c #A69B68",
"e. c #B79B6D",
"r. c #A78975",
"t. c #B68B77",
"y. c #BB8D75",
"u. c #AC937A",
"i. c #B69179",
"p. c #BB937C",
"a. c #9DA362",
"s. c #9BA56A",
"d. c #9DA774",
"f. c #A2A463",
"g. c #A8AB67",
"h. c #B4B36B",
"j. c #AFAB72",
"k. c #B9B675",
"l. c #C48B79",
"z. c #C3957B",
"x. c #C0A16F",
"c. c #C6A97B",
"v. c #C4B879",
"b. c #C1C275",
"n. c #7D6782",
"m. c #856B87",
"M. c #8C748D",
"N. c #91738B",
"B. c #8E7491",
"V. c #957997",
"C. c #7F8993",
"Z. c #8E8F92",
"A. c #9A839E",
"S. c #B08F8E",
"D. c #AB9584",
"F. c #B89883",
"G. c #B8B08E",
"H. c #9E84A3",
"J. c #9599A5",
"K. c #A58BA9",
"L. c #A994AC",
"P. c #AE93B2",
"I. c #B59AB8",
"U. c #99A3AA",
"Y. c #9EA8B2",
"T. c #A4ACB4",
"R. c #B4A9B3",
"E. c #ACB4B6",
"W. c #AAB3BC",
"Q. c #C49B84",
"!. c #C59987",
"~. c #CB9C85",
"^. c #CB908A",
"/. c #CB9D8A",
"(. c #E5979B",
"). c #C8A487",
"_. c #CCA38B",
"`. c #D3A48C",
"'. c #D5AA8B",
"]. c #C9B783",
"[. c #D5BA8A",
"{. c #C9A895",
"}. c #CCAC94",
"|. c #D3AB94",
" X c #D7AB95",
".X c #CDB599",
"XX c #DCB49C",
"oX c #D9B898",
"OX c #E4AC93",
"+X c #E2B799",
"@X c #CCB6A8",
"#X c #D9B9A5",
"$X c #C9AFB4",
"%X c #E3BBA4",
"&X c #E6B8A4",
"*X c #E8B1AC",
"=X c #E4BDAA",
"-X c #B7C0B8",
";X c #C8C284",
":X c #D7C18C",
">X c #C9C297",
",X c #DBC496",
"<X c #E2C396",
"1X c #E2C59C",
"2X c #C8C7A6",
"3X c #DDC2AC",
"4X c #D8CBA8",
"5X c #DAC4B5",
"6X c #D6CFB3",
"7X c #E6C6A9",
"8X c #EBCCAC",
"9X c #E8D1AF",
"0X c #E3C5B3",
"qX c #EAC6B3",
"wX c #E6C9B6",
"eX c #ECCCB4",
"rX c #E5CCBB",
"tX c #ECCBBB",
"yX c #F2CCB8",
"uX c #ECD1B3",
"iX c #E5D7BA",
"pX c #ECD3BC",
"aX c #F1D1B6",
"sX c #F2D3B9",
"dX c #B79DC3",
"fX c #BEA4C5",
"gX c #AEB9C3",
"hX c #B2BBC4",
"jX c #B3BDC7",
"kX c #C5B0C6",
"lX c #BAC3CB",
"zX c #BEC7D0",
"xX c #C4CBD4",
"cX c #CBD4DB",
"vX c #D2D1D0",
"bX c #E8CDC3",
"nX c #F2CEC3",
"mX c #ECD2C3",
"MX c #EBDCC4",
"NX c #ECD9CA",
"BX c #F3D7C8",
"VX c #EADCD4",
"CX c #F4DBD3",
"ZX c #EDE1CB",
"AX c #ECE3D3",
"SX c #F3E3D3",
"DX c #F7E8DB",
"FX c #D7DCE3",
"GX c #DBE2E9",
"HX c #E6E9EA",
"JX c #F5ECE3",
"KX c #F8ECE6",
"LX c #F8F3EB",
"PX c #E8EEF4",
"IX c #FAF9F6",
/* pixels */
"o X o o X X X X X X X X O X X O X o X o O X 1 q 3 v i : 6 8.t.D.L  .X.L q  .7.i $ + + ;   +   +   X X   X X X X X X X X X X X X ",
"o o o o X X O X X O X X X X O X o o o X o X ; =  .N K | ../ | r.O.D.D.r.O.O.D.m $ ; o + + +       + X   X X X X + X X + X X X X ",
"O X O o X O O O O X O O O o X O + O o : O w 3 q ..( ( u.` r.D.A | O.A O. .a L D.m 7 & $ + X   + + X o o X O X o X X X + X X X X ",
"O O O O O X O O O O O O O O O O O O O 2 : w 7.S.8.f G r.S.r.X.O.) A / ! 5.8.K S L D w : O o + O $ o O O o O O o X + @ + O O O O ",
"O O O O O O O O O O O O O O 2 O O O O 2 a S.} O...O.m ` O.D.} ) / | M | r.8.../ n O.B a q ; $ ; O * X O O O O o O O O O O O O X ",
"O O O O O O O O O O O O O O * O * : : q ..O.r.O.L | L O./ | V ) D  .O.L | M ) ) Z F } F L O.n ; * X * O O X O O X O O O O O O O ",
"O O O O O O O O O O O O O O O - 2 a K D.G.S.} 3 r.K 5.m O.K D ) } n | | O.6 a r u L w  .S 7.L w 2 3 O * O @ @ + O O O O O O O O ",
"O O O O O O O O O X O O O O O X q D.G r.r.! M D.( K K | D r.D r., g S L D F K Z } B n a K D D.L v * : : : @ @ @ O O O O O O O O ",
"O O O O O O O O O O O O O O O O w p {.u.V A } O.X.D | ) | | ) 3 w n B n r D O.O.v L m q v N / r. .q 1 q $ $ $ @ O O O + @ O O # ",
"O O X O O O O O O O O O O * * O B | ` r Z O.V ! ) / X.) o.j p M / } r q m a m O.) q a n a D L B | | L % : @ @ $ O @ O O @ + # o ",
"O X o O O O O O O O O O O O X * D.O.q a ` X.D n D D D ..A m W ' o.X.A a q a N | n v K Z S L L r. .O.K @ $ @ # @ @ O @ @ O o # o ",
"o O X O X O O O O O O O O @ + t r.A w m ) ) X.M ) / | a t h / 3 N 9 t Z M Z M G f O.O.B m L D O.) L B > : @ # @ @ O # # # # # # ",
"O @ O # # # # # # # # # O @ $ L ] M q G M O.) O.r.M n D  .o.a 0.A q q d e e p e p X.X.X.V Z n B  .Z K 5 * = * * = * # # # # # # ",
"* $ # $ # * # * * * $ % $ $ 3 / 5.G M M ) X.g X.} / M X.0.g @./ e e k d M h d l ~ @.W C h Z L w | B L a - - = - = = = * # # # # ",
"$ * * $ # * * * * * % ; ; 1 = r.h 5.C F.| ( Z D / D X.X.! p { V W W W E k k ^ { { ^ @.W f a m m  .m S L - - < < - - = * # # # # ",
"% $ $ $ * # # * # * = = 1 1 q 7.K u.8.G K 0 n t M ! ) _ r ( l l { l.).z.l.{ { q.@.@.@.@._ n K m D B F L 4 < < 2 < < % % # o # # ",
"# # # # # # # # # % & 1 1 3 L D.O.u.` h e u r f f G ! d C d l W t.`.XX&X&X X~.#.#.y.t.p.t.r g g m B v N 6 < 2 2 < = % # o o o o ",
"o O O . . # o . o o $ = 1 5 m u.7.a q r w q q p _ C h ! 0 f E @./.%X&X=X=X&XOX`./.!.z.y.t.g j m D m B g 3 < 2 2 < - % + o . . . ",
"o . o o o o . . o o + & ; 5 6 Z K i a 3 9 * 3 V C d d 9 u k _ ~.*X=X7X=X=XqX*X#X X X`.^.t.A w n B  .m m 3 2 2 2 < = % o   o o . ",
". . . . . . . . . o o @ & ; i F 7.w u a q 3 f h 9 q , 0 t ^ _.%XqXeXqXqXqXqX=X=XXX X|.{.l.' 9 u n F m m 6 2 2 2 = = # .     X . ",
"        . o       + .   . & S L 5.f a r ) V e t 2 , 3 0 _ |.&XtXtXtXqXbXtXtX=X=X%XXX|./._.| e 3 n m B a < 2 2 2 ; % +     .     ",
"          .   o           & + ) L F j ' h e t 9 , 0 W z.#X#X=XqXqXqXyXqXtXqX=X=X#X|. X{.!.( q 9 n m i B 3 2 2 < ; % + +   o . o ",
"      .     . X .     +   . @ 7.5.L ..G u f ( k ).#X%X=X&X=X=X=X&X&X&X%X&X&X#XXXXX$X#X X!...9 w 5 Z n m 6 3 2 < = $ o . X X . X ",
". . o     o   o + .   + + + 6  .O.| ) u u y.i.|.qX|./.q.@.@.l.~.`.^.XX`./.^.F.^.t.{.{.{.{.t.9 : 2 a S m 3 3 2 < = $ + o + . X . ",
"X . X . . + . . . . o . . o 4 qXF.' 3 g C oX#X#Xz.y.{ ~ d t k E @.l.+XQ.q.] ~ V V _ { i.{.u.9 : 3 u B g , 3 2 < & $   + +   . + ",
". .   . . . . + . o   o . # 6 OXF.G M  .C 5XwX!.e.] k e 0 9 d W ^ `.=Xz.W W k 0 q f A ^ ' t.q > 9 i a Z q 2 - = & @ + + + + + . ",
".   . . . . . . . . o . . % 3 +Xt.! ` G _ rX7X)._ ( 7.b v M k E ^ 7XsX!.l e t t q < f ( ] p.M 2 w i w j a 4 2 - < ; 1 5 6 6 1 & ",
"% & & % % % % % % % ; 1 1 = i r.q.` ..C 0.bX7X'.l.#X#XT  .p.{ z.l.mXCX|.~ k V R.b b / W 5.Q.) 2 m g j j ' H F s H 5.d.G.G.u.9. .",
"4 y y y y 4 y y y i i s s u z 5.`.X.G u p.mXpXqX7X X^.~.l.#.#.z.%XNXCXbX@.@.#.S.F.S.q.o.0.{.X.< u g ..C .XG.f.d.j..X4X4X4X>X.XG.",
"z z z s s s s s z x H J J J J J _ l.M j 0.mXBXNXmXtX).q.q.z.|.eXbXCXCXnX!.y.z.@.@.@.y.!.!.}.o.2 w B 5.#X9XiX>X;X>X9XpXpXpXrX4X.X",
"x J H J H J H x %.&.;.:.>.;.>.` yX&Xk e @.rXCXNXBXmXqX7XOXqXsXBXBXCXNXwX~.).~.~.^.!.{.@XXX}.o.w p u 2XMXAXZXiX6X4XiXZXSXZXiX9X4X",
"%.%.%.-.&.%.&.-.-.,.3.a.w.w.a.6.nXnXOXz.8.pXmXNXBXpXyXqX8XyXnXnXnXnXCX*X/.!.`.`. X XXX#X.X}.X.q f ^ KXKXDXZXZXiXiXZXZXSXDXMX6X4X",
"&.:.&.:.:.:.>.>.2.a.s.f.4.w.w.g.{.bXbX=X5XrXtXqXyXqX&XqXyXnXyXsXVXCXCX*X!././.`.`.'.|. X|.{.X.( ( S.KXKXDXAXZXiXZXMXMXZXMX6X;Xb.",
"%.&.:.:.6.6.6.a.s.g.g.g.f.f.4.4.>.DX=XwX5X5XwX=X+X&XqXyXnXyX&XnXCXCXCX*X!.l.~.|. X|._.!.!.{.@.]  XbXKXKXDXZXMXiXZXiXiXMXiX,Xb.b.",
"%.:.:.s.6.s.f.d.g.g.g.f.f.3.<.4.g.u.qX^.bX5X3X#X+X&X7XyXyXqX'.CXCXCXnX$X*X@.~.`.~.~.Q.Q.F.).D.@.#XLXKXDXDXMXiXiXiXiXiXiX4X>Xk.d.",
"&.&.:.:.6.a.f.g.g.g.f.f.a.3.>.4.g.g.6.a bX5X7X7X7X=X&XyXeXOX'.^.nXnX*X X{.@.~.`.).l.y.p.F.F.F.`.#XKXDXSXZXiXuXiX9XiXiXiX,Xk.g.a.",
"%.%.&.:.6.a.a.g.g.g.a.3.<.2.1.4.g.g.j.L 6X5X3XwX=X8XqXtX&XOXqXl.^.~.{ @.Q z.t.!./.p.p.F.F.F.G.VXIXKXSXZXiX9X,X,X9XuXsXaX,Xv.<.>.",
"J %.&.:.,.a.6.a.s.a.a.2.2.>.2.4.g.h.k.w.5X5X#X5XwXtXmXtX+XyXmXtX&Xq.W ] t./.z.~._.Q.z.p.F.F.$XIXLXJXSXpX9X:X;X,X8X8XuX1X:Xv.1.;.",
"J J -.:.>.9.6.6.,.2.2.,.>.2.4.4.g.g.j.j.3X#X3XqXwXmXBX7XqXtXnXyX&XE { @.p.!./.Q._./.).F.F.F.VXIXIXJXSXpX8X,X:X[.:X<X<X[.OXc.x.1.",
"J &.-.:.>.>.6.,.,.>.>.:.>.2.4.4.g.j.k.G.2X@X#X3XrXmXpX=X%XqXtXnX&X X&X/.!.F.p.p.p.{.F.F.F.S.IXIXLXJXCXuX1X,X:X:X:X,X<X:X<XOXc.x.",
"J %.-.:.>.:.6.<.2.2.2.2.2.2.4.4.k.].].:X,X@X#XrXrXrX0XXX}.XX^.Q Q [ Q Q #.F.@.r.y._.F.D.D.r.IXIXLXDXSXsX8X<X[.[.;X:X[.+X+X+X[.c.",
"%.%.:.:.6.a.f.f.4.4.4.2.4.4.h.x.].[.oX1X7X@X#X4X0XwXXX~.{ 8 8 V X.~ } n , , t X.t.Q.i.r.u.@XIXIXIXJXCXuX1X<X[.].v.:X[.+X<X+X+X'.",
"%.&.:.3.g.g.h.h.4.h.g.h.h.h.x.v.:X,X7X8X9XrX{.@X3X3X'.z.).=X*X(.#.[ Q Q #.^.y.0.0.i.i.r.8.LXIXIXLXKXSXuX7X<X[.].c.v.'.[.oXXX+XoX",
"%.:.,.a.g.h.h.h.h.h.v.v.v.v.:X:X,X7X8XuX9XmX{..X3X.Xz.c.+XeX&X*X(.(.(.(.^.p.z.r.0.o.r.r.D.IXIXIXIXJXSXuX1X:X[.c.c.c.'.[.oX%X7X7X",
"%.:.2.g.h.k.k.k.b.b.v.v.[.:X:X<X1X8X8XaXaXmX3X{.#X{.z.'.|.+X'.z.#.[ [ @.@.q.0.q.' o.5.O.G.IXIXIXLXJXVX9X1X[.'.c.c.)._.[.XX7X9XpX",
"=.:.2.g.h.k.b.;X:X:X:X<X:X<X1X8X8XeXaXaXaXmX5X.X}.{.).).'.).z.q.[ Q ^ _ @.0.0.] @.o.0.8.{.IXIXIXLXJXZX0X+X[.c.~.~._.'.|.7X0XpXMX",
"=.:.2.4.h.v.;X:X:X,X<X<X<X1X7X8XeXaXaXaXuXmXrX@X.XG.).oXoXoXXX7X*X X'.~.y.y.t.y.0.0.X.r.L.HXIXIXLXJXVX0XoX'.`.'.'.'.'.|.#XeXNXCX",
"%.2.4.h.v.;X:X<X1X1X7X8X8X8X8XeXaXaXaXaX8XpXwX3X{.).{.#X0XqX0XqX=X XOX X`.).Q.r.X.O.o.F.Z.xXIXIXIXJXMX3X'.).`.OX'.'.'.'.7XpXCXSX",
"2.2.4.b.[.[.<X<X8X1X8X8XaXaXaXaXaXaXeXeX8XmXrX@X}.F.{..X7X3XoX&XOXz.`.`.z.!.p.r.' / 0.^.W.xXxXIXLXJXNX5X}.`.|.'.'.'.'. X7XpXSXDX",
"=.4.g.k.v.+X<X8X8X8X8XaXaXaXaXaXsXsXsXaXVXrXmX#X}.).u.{.}.}.).Q.l.y./.t.r.0.5...A X.0.O.hXlXlXJ.H.kXHXbX5X=X3X3X+X+XoX%XsXCXDXDX",
"<.1.g.v.[.[.<X7X8X8XyXaXaXsXaXsXsXyXyXyXHX5XqX#X#X}.G.0.0.0.0.o.] @.@.' ' ' ( A G o.O.J.hXjXzXGXP n.H.m.K.vXNXbXmXrXwXpXBXDXDXDX",
">.4.4.e.c.[.[.+X1X8X8XaXaXsXBXsXsXBXBXBXPX@XwX7XXX.X}.}.u./ / G G ! / ! / / h A ( _ D jXjXlXzXjXC.R V.V.P K.R.HXAXVXMXMXSXDXKXLX",
":.>.w.w.x.].].[.,X,X9XiXMXZXSXDXDXDXKXVXGXr.qX#X.X|..X#X.XF.! G ! G / G C h C A ! D L.jXhXjXxXgXzXb n.B.n.m.H.P.vXDXAXZXDXDXKXKX",
"=.=.>.<.w.e.c.c..X,X6XMXDXDXLXLXLXKXI.cXHXm 7XXXXX}.}.XX.X{.y.~ l l l l h V V B D +.W.jXgXjXgXjXjXv n.V.B.n.K.P.dXP.R.bXSXDXKXKX",
"%.%.*.%.*.>.w.G.G.>XbXAXJXLXLXIXHXK.U PXGXZ.oX}.{.|..X@X@X}.F.w.' C V F V M j l v Y.jXW.gXgXgXgXgXA.n.n.B.P V.H.K.K.L.I.$XKXKXDX",
"$.%.$.%.&.9.G.G.6X6XAXJXLXIXIXIXP.n.hXHXHXAXo._.)._._.|..X).p.i.0./ l l M h g p J.lXW.gXgXgXgXlXgXC.I n.n.P V.V.P.P.I.L.I.G.DXDX",
"$.$.$.&.&.U.G.G.2XvXFXJXLXIXIXR.A.7 PXGXGXGX` c.!./.{.!.}.F.r.' ~ G V V h h f U.xXW.W.W.T.U.gXcXU.Z.Y m.n.I V.K.K.K.V.P.P.B.VXCX",
"$.$.%.&.d.d.G.>X2X6XAXHXLXHXkXK.P zXGXPXFXGXHX( t.p.{._.).i.0.' ! ! V V V h R.cXT.W.W.Y.U.T.jXJ.J.E.U n.B.U N.K.K.K.K.K.B.P.I.P.",
"%.$.&.2.d.b.G.2X2X-XZXHXvXI.kXN.c zXGXGXFXFXGXR._ t.F.).).i.@._ ! ! W A h xXxXxXW.W.W.U.U.hXjXY.Y.U.P Y m.Y R V.V.V.K.V.n.K.H.P.",
"%.%.&.&.d.G.G.G.>X2X6XjXfXI.K.Y Z.FXPXGXGXFXGXcX..( t.).Q.i.0.] ' _ ( ! R.v E.lXW.Y.J.U.hXW.Z.Y.zXW.n.m.n.U I B.V.K.V.m.B.V.K.K.",
"%.%.2.2.d.b.>X2X4XkX$XfXI.I.K.P cXGXGXGXFXGXGXGXHXA @.Q.p.u.@.] _ ( _ u.Z.T 7 T.Y.T.U.T.W.E.E.lXFXW.I I Y Y P V.V.K.V.Y V.V.V.P.",
"2.4.4.h.h.k.;X>XkXfXdXI.P.dXN.N.GXzXxXGXFXFXFXFXFXFXG i.Q.y.0.{ ] _ 9.Z.Z.8.T i hXU.Y.E.T.cXW.lXcXlXR I Y n.P N.V.V.V.Y V.B.m.m.",
"g.s.h.b.b.;X@X$XR.$XI.P.K.P.Y N.gXGXzXFXFXFXFXcXJ.b vX] _.F.0.@.@.{ R.T.E.J.T 7 T.U.T.Y.lXzXlXxXcXzXZ.c Y +.P m.V.V.m.M.m.m.V.m.",
"g.g.b.b.2XkXfXkXdXP.I.P.P.H.U n.FXGXlXzXGXcXFXPX1 y lX5XF._.p.y.t.y.J.J.Z.T Z.T Z.E.-XY.lXgXcXxXcXlXL.P I m.P m.V.B.m.Y m.m.B.B."
};
