/* XPM */
static char *result[] = {
/* columns rows colors chars-per-pixel */
"64 64 244 2 ",
"   c #060106",
".  c #0C0406",
"X  c #06010C",
"o  c #0A050A",
"O  c #0D090C",
"+  c #110606",
"@  c #130708",
"#  c #140B0C",
"$  c #1A0D0C",
"%  c #1B100E",
"&  c #070313",
"*  c #0A0515",
"=  c #0C0A15",
"-  c #0B061A",
";  c #0D091C",
":  c #120D13",
">  c #1B0E11",
",  c #120B1C",
"<  c #1C1313",
"1  c #18141A",
"2  c #23100E",
"3  c #221413",
"4  c #281717",
"5  c #241B1B",
"6  c #2B1B1B",
"7  c #3A1718",
"8  c #331D1C",
"9  c #28211D",
"0  c #33211E",
"q  c #0F0B22",
"w  c #0F0C29",
"e  c #120D24",
"r  c #120F29",
"t  c #0D1226",
"y  c #1B1523",
"u  c #1C1B23",
"i  c #18162C",
"p  c #191636",
"a  c #221C28",
"s  c #221E35",
"d  c #1E222D",
"f  c #2D2523",
"g  c #22252B",
"h  c #292628",
"j  c #332423",
"k  c #362727",
"l  c #332D2B",
"z  c #3C2B2C",
"x  c #343127",
"c  c #35322C",
"v  c #39332D",
"b  c #282935",
"n  c #382B36",
"m  c #2C3339",
"M  c #353432",
"N  c #3A3533",
"B  c #3B3A35",
"V  c #363738",
"C  c #3D3C39",
"Z  c #460E15",
"A  c #461619",
"S  c #66091A",
"D  c #6C0B1C",
"F  c #6F0E1E",
"G  c #4E241E",
"H  c #431C21",
"J  c #6F1021",
"K  c #721121",
"L  c #462B28",
"P  c #562D2A",
"I  c #45312D",
"U  c #56352D",
"Y  c #4A3533",
"T  c #463938",
"R  c #423D3B",
"E  c #593C36",
"W  c #663B36",
"Q  c #3F413C",
"!  c #44423D",
"~  c #48423C",
"^  c #57423F",
"/  c #65453C",
"(  c #6B443C",
")  c #72443E",
"_  c #1F1B45",
"`  c #282B41",
"'  c #2E3349",
"]  c #373A46",
"[  c #383C56",
"{  c #4C3B40",
"}  c #3D4246",
"|  c #3E444A",
" . c #3D4259",
".. c #454442",
"X. c #4A4444",
"o. c #4B4945",
"O. c #42454B",
"+. c #4B464A",
"@. c #44494B",
"#. c #4D4B4C",
"$. c #514446",
"%. c #574849",
"&. c #534C4C",
"*. c #4F504C",
"=. c #57514E",
"-. c #444B52",
";. c #4A4855",
":. c #534E51",
">. c #5C4E51",
",. c #4B5257",
"<. c #555253",
"1. c #5A5455",
"2. c #5B5659",
"3. c #55585A",
"4. c #5D5B5B",
"5. c #674944",
"6. c #774C44",
"7. c #6E514B",
"8. c #765148",
"9. c #7B524B",
"0. c #655759",
"q. c #635C5D",
"w. c #775753",
"e. c #5E615F",
"r. c #61615E",
"t. c #464964",
"y. c #4E5169",
"u. c #585B67",
"i. c #555773",
"p. c #645D62",
"a. c #695A65",
"s. c #745E6C",
"d. c #5D6262",
"f. c #5D636A",
"g. c #5F686D",
"h. c #5F6178",
"j. c #636564",
"k. c #6A6466",
"l. c #656866",
"z. c #686967",
"x. c #656669",
"c. c #6C656B",
"v. c #666969",
"b. c #696B6A",
"n. c #72676A",
"m. c #726A6D",
"M. c #7E716E",
"N. c #666975",
"B. c #6C6E72",
"V. c #736D73",
"C. c #796E75",
"Z. c #6D7173",
"A. c #6E737B",
"S. c #757475",
"D. c #7A7275",
"F. c #747579",
"G. c #7C757A",
"H. c #767979",
"J. c #7B7B7C",
"K. c #8B3632",
"L. c #9A484D",
"P. c #83544D",
"I. c #885B54",
"U. c #965957",
"Y. c #87635C",
"T. c #94655C",
"R. c #99655F",
"E. c #876764",
"W. c #9A6B64",
"Q. c #9A746B",
"!. c #84777B",
"~. c #9A7C75",
"^. c #A86B66",
"/. c #A3736C",
"(. c #AA746E",
"). c #B56D71",
"_. c #A97A73",
"`. c #B57B77",
"'. c #AA8379",
"]. c #AC827B",
"[. c #B4867B",
"{. c #B5847C",
"}. c #C1827D",
"|. c #666A86",
" X c #757586",
".X c #7D7E81",
"XX c #72748D",
"oX c #817D81",
"OX c #8B7F87",
"+X c #967E83",
"@X c #7F8081",
"#X c #7E8288",
"$X c #838385",
"%X c #8A8386",
"&X c #85868A",
"*X c #8B868B",
"=X c #86898A",
"-X c #8B8B8D",
";X c #968A8B",
":X c #878992",
">X c #8D8D91",
",X c #938D92",
"<X c #948F9F",
"1X c #8E9193",
"2X c #929295",
"3X c #94959A",
"4X c #9A9699",
"5X c #95999D",
"6X c #A88985",
"7X c #B58C84",
"8X c #BA8C85",
"9X c #B79489",
"0X c #BB948B",
"qX c #A58F93",
"wX c #A3979A",
"eX c #BD9993",
"rX c #918EA9",
"tX c #989AA4",
"yX c #9A9CA4",
"uX c #A49EA2",
"iX c #9DA2A6",
"pX c #A6A2A5",
"aX c #A9A3A6",
"sX c #AAA5AA",
"dX c #AAA8AD",
"fX c #B3ABAC",
"gX c #B3ADB1",
"hX c #AEB0B7",
"jX c #BAB2B4",
"kX c #B5B4B8",
"lX c #BEB5B9",
"zX c #C08B87",
"xX c #C2948C",
"cX c #C39B94",
"vX c #C69996",
"bX c #C5A199",
"nX c #CBA39C",
"mX c #D0A49D",
"MX c #CCA4A1",
"NX c #D0A5A3",
"BX c #C0B8BA",
"VX c #BDB6C9",
"CX c #C1BCCE",
"ZX c #C8C4D6",
/* pixels */
"c.c.V.V.V.V.V.V.V.N.C.V.C.C.OXc.*XoXV.0.0.p.p.p.p.p.oXBXjXjXjXgXjXfX,X,X,X;X*X*X&.o.~ &.0.&.X.#.r.1.k.j.#.X.....X.O.X.O.X.X.X.+.",
"c.c.V.V.V.V.V.V.V.C.C.V.C.F.C.OX*XG.0.u.4.0.0.p.p.p.a.aXlXjXjXgXjXjX,X4X,X,X,Xa.&.$.1.1.&.1.q.#.q.&.#.+.+.@.+.+.+.+.+.+.+.+.#.+.",
"N.c.V.N.C.F.C.V.V.V.V.C.V.V.c.oX!.k.4.q.q.0.j j 8 6 4 3 4 OXBXlXBXBX,X,X,X*X,X:.&.&.:.k.k.=.q.2.<.:.:.:.:.:.&.:.+.&.:.:.#.:.:.#.",
"2.2.a.a.c.c.c.m.V.V.C.C.C.C.OXG.q.k.k.z.p.z j j 6 3 $ + # > > BXjXjX4X,X,X,XS.%.&.C.oXc.k.1.1.<.<.&.<.:.:.:.&.&.:.:.<.<.<.<.<.,.",
"{ %.>.>.>.>.0.>.>.0.0.a.s.oX!.n.n.m.m.%.f 6 I j 6 $ $ $ O + # 5 lXlXwX4X,X,X&.&.G.m.n.p.2.2.3.1.1.<.1.1.:.:.:.1.2.1.1.1.<.3.<.1.",
"T { T $.$.X.$.$.$.$.>.>.>.oXc.c.k.D.k 3 $ + 5 j f 4 $ + @ $ . $ 4XlXwX4X,X!.%.n.p.+.+.+.&.:.&.,.:.:.:.1.2.c.V.m.4.4.3.1.2.2.2.u.",
"n T n N T { { T { ..{ R 0.$.%.T $.>.2 @ # + 2 8 4 6 < # @ + . . @ wXaXwXwX1.&.f h h h h h l h l l n +.p.m.C.V.c.4.4.3.4.4.4.q.4.",
"k.q.4.1.:.+.X.] C T T X.1.j j a 8 k 3 $ # + $ 2 j 4 < < # + + + $ ,XaXpXpX4.! < 5 1 5 5 6 a 9 9 5 R 1.1.&.X.0.B.V.V.V.V.V.x.d.1.",
".XJ.J.J.J.J.H.H.H.H.H.H.S.b.m.v.Y 0 3 3 3 + $ $ 7 0 2 2 2 $ % @ + # wXuXuX1.~ # # # # % % < < % 1 < < 1 1 9 1.m.S.C.S.m.S.k.3.4.",
".X.X.X.XJ.J.oXJ.J.J.J.J.H.H.H.H.L 6 j k 4 $ $ 2 U / / 7 2 4 4 2 @ @ T pXuX1.=.*.*.*.o.! ! Q Q V Q M B v V c M 4.S.D.C.S.m.z.3.e.",
"oX@X.XoX$XoX.X.X.XJ.J.J.J.J.H.J.Y I j z 4 2 2 0 P.T.T.P.( W / G 8 + X.pXuXr.4.e.e.e.e.e.e.e.e.e.e.e.e.e.e.e.e.e.4.H.D.D.V.j.e.e.",
"$X$X$X$X$X$X$X@XoX$XoX@X@XJ.J.G.I L 3 z 0 0 0 9.W.W.R.T.P.) ( / P + aXaXuX1.4.r.r.d.e.e.e.e.e.e.e.e.j.j.r.e.e.e.4.v.H.G.S.e.e.e.",
"&X$X&X&X$X$X$X$X@X#X#X#X'.A.H..Xv k j T j z / Q.'.(.T.T.I.P.) ( E 2 gXpXuXe.4.r.l.e.e.e.l.d.e.l.r.r.j.l.l.r.j.j.e.e.F.!.H.j.j.j.",
"&X&X&X&X=X$X$X$X#X#XH.'.#X@X@XH.T z L Y I U Q.9X0X'./.R.U.P.) ( / ^ fXaXuX4.r.l.e.l.l.r.l.r.r.d.j.j.j.l.k.j.j.e.d.j.b.&XH.r.e.j.",
"-X*X*X&X=X=X=X$X=X=X$X$X=X@X@X!.Y Y z z L _.eXeX0X[.'.W.T.Y.) ) U 5.gXaXuX1.e.r.l.r.l.l.d.l.r.j.r.j.j.l.j.l.z.j.r.d.b.&XH.j.j.j.",
"-X>X-X-X=X=X=X=X=X=X=X=X$X$X$XS.{ E Y I %.~.nX0X9X[.'./.W.T.Y.P./ / gXaXaX4.e.r.l.l.l.r.l.r.j.d.l.j.j.z.z.j.l.r.u.j.S.*XJ.j.j.l.",
">X>X>X>X-X-X-X-X=X=X=X=X=X$X#X@X=.T %.I / ~.eXvX8X8X7X]./.T.R.Y.9.5.fXsXpX4.4.l.l.r.l.j.l.j.d.l.l.l.l.l.l.z.l.j.j.d.S.-XG.l.l.l.",
"1X,X>X>X-X-X-X-X-X-X-X=X=X=X#X'.%.Y Y ^ 7.Q.vXMXcX8X8X'./.T.R.U.9.E fXsXaX4.r.l.z.l.l.l.j.l.r.r.j.k.l.z.l.x.k.l.j.d.S.,XH.l.l.z.",
"2X,X1X1X>X>X-X-X=X-X=X=X-X=X=X=X7.$.I Y w.eXMXbXcX8X]./.T.R.I.U 8 0 fXuXpXq.q.l.z.z.l.r.j.l.j.j.j.l.j.z.b.b.x.j.d.d.H.-XH.l.l.b.",
"3X3X2X>X2X1X>X>X-X1X1X=X-X-X=X=XS.^ Y 5.7.MXMXnXcX/.( G 6./.) 7 W L wXsXaX4.q.l.l.z.l.j.j.l.l.e.j.l.z.z.b.z.z.l.l.j.H.>XH.@.H A ",
"3X2X2X2X2X2X1X>X1X1X1X1X-X-X-X-X*X5.Y E n.NXmXmX_.W P ( T.`.P.8 h P gXsXaX4.r.b.z.l.l.j.l.l.j.l.j.l.l.b.b.z.z.l.j.j.J.-XJ.C S J ",
"3X2XT % J.2X2X2X#X'.1X1X1X-X-X-X;X`.P E E.mXnX].9.W.6 A W.`.^.E U 5.dXdXsX4.q.b.z.l.z.d.l.z.j.d.j.j.l.v.b.b.v.l.j.l.J.,XD.B S F ",
"4X2Xk 4 < 2X2X2X7.L ;X1X1X1X-X-XeX^.^.I.w.NXbX'.P.'.Y P._.xX`.W ( 9.fXpXaX4.e.b.l.l.l.j.g.r.z.r.j.j.k.b.b.k.l.k.j.d.J.>XH.M S J ",
"4X4XY.T.m.3X2X2XI./ m.2X1X-X1X-XqX).8X_.Y.NXnX].].W.P.R.{.mXvXP.P.P.aXsXsX1.e.b.b.z.j.l.j.l.l.j.j.j.l.b.b.b.b.z.j.l.J.,XS.M D J ",
"yX4XcX6.$X3X2X3X0X6.w.>X2X2X>X>X*XvXK.).W.MXMXcX7X_./._.zXNXmXU.6.9.qXaXaX4.e.z.l.l.l.g.l.l.j.j.d.j.l.v.b.b.b.l.j.l..X,XS.h S K ",
"=X3X6X8.4X2X3X2X6XW.Y &X2X1X1X>X,X).L.L.].NXNXnXxX8X[.[.+XMXNX).6.9.qXsXsX4.e.b.v.l.l.l.l.d.l.r.j.j.b.v.k.z.z.l.j.j.$X-XH.f S J ",
"1 ;.C.{ 2X5X3X3XrXT.s.[ y.1X2X2X>X}.^.L.cXvXnXmXxXzX{.`.^.zXMX/.6.9.6XsXaX4.r.z.b.l.g.l.l.l.j.e.j.j.l.l.l.b.l.l.k.j.@X,XH.h D K ",
"V b rXi.: $X4X3X|.tXrXi.y.b 3X2X2X;X}.}.vX0XnXmXvXzX8X`.^.NX+X/.6.9.;XaXsXq.r.b.z.z.j.l.z.l.j.g.j.d.l.v.z.z.c.l.j.c.$X,XS.f D K ",
"+.a XXh.: 1 3X X|.ZXrXi.t.b 2X1X2X>XxX`.{.vXnXvXvXxXxX(.(.R.(.P.W 6.!.dXsXq.4.b.b.v.v.v.l.l.j.l.j.l.x.l.b.b.k.l.g.d.'.4XH.9 D K ",
",.{ h.N.# : 3X X|.ZXXXt.t.' 1X3X2X1X1X{.(.vXnXnXvXxX[.^.`.`.Q.P.6.6.E.gXsXe.q.Z.b.v.v.v.x.l.j.d.j.l.l.l.l.b.b.l.j.f.#X2XH.9 D K ",
";.;.[ i.O O 5XN.|.VXi.[  .' &X3X1X1X1X1XMXvXnXvXmXxXxX[.{.7X^.I.W 7.6XhXsXq.r.b.b.v.v.v.v.l.l.j.j.l.l.v.v.b.b.l.j.l.$X2XS.5 D K ",
";.{ a.] . O 5X .|.VXt.[ t [ A.3X3X1X1X1XaXvXnXnXxXxXzX[.(.W E.A W 5.fXgXaXr.r.B.B.b.v.v.v.l.l.j.f.j.v.v.v.c.z.v.l.l.$X2XS.5 D K ",
"s +XI.a z O 5X' i.CXy.[ [ ` l.5X5X1X3X1X1XnXbXbXcXxX0X[.I.).L.U.6.( gXdXaX4.e.B.b.v.v.v.v.b.l.j.d.l.l.l.k.b.c.x.l.l.%X2XH.3 F K ",
"a 6X9.L W @ yXb ] V L g d d 1X5X5X3X3X1Xu bXcXbXxXxX0XQ.{.{.L.) 6.( gXsXaX4.r.B.Z.b.b.b.l.v.l.l.l.l.v.v.b.l.l.z.j.l.*X2XH.6 D K ",
"a $.a.y L m &Xl n :Xn i t 3X5X5X1X5X3X2X5 nXbX[.xX9X7X[.{.(.R.I.6./ gXaXaXq.r.B.b.Z.b.v.b.v.v.d.j.x.l.v.b.v.v.x.l.j.&X2XH.4 F K ",
"a N.XXm 1 yXyX{ b rX' s u :X5X5X5X5X5X,.0 nXcXbX[.9X9XxX[._.[.T.P.8 gXaXuX4.r.B.B.Z.b.b.b.l.g.j.l.l.v.v.x.l.l.l.j.c.-X2XD.4 F K ",
"n i.|.O.o iXyXrXt.Y k [ i F.yXtX5X5X5Xu v nXcXbXeX[.9XeX[.9X'.T.8.z dXuXuX4.r.Z.Z.b.b.b.b.v.l.j.x.f.l.l.l.l.v.j.l.z.-X4XH.4 D K ",
"b # a o O yXyXyXy.u a t.s u.yXtX5X5X_ F.x bXcX0XbX9X'.'.'.'.W.9.I %.; pXaX4.r.Z.Z.V.Z.B.b.l.l.j.j.l.v.l.l.x.l.x.j.z.-X2XS.4 D K ",
"u # : o o yXiXyXi.y i ' b m tX3Xi.r p 4.~ ^ bXeX9XeX9X'.P.7.~ / 3 0.h - 4Xr.q.B.Z.Z.b.b.b.v.l.l.j.l.l.l.l.x.l.j.j.l.;X4XS.4 D F ",
": , O o o yXyXyXi.u a ' [ g t._ p e n :.e.=X[.eX[.cXaX'.I.I / / N q.m., * , j.b.b.v.v.d.j.j.e.e.3.4.4.3.2.1.<.*.#.#.r.m.r.6 S D ",
"y : . O o yXyXtXt.i y s [ _ e r w - 3 0.0.H.w.7X'.9XeXeXw.^ 5.L ] 0.!.# & * * u #.o.@.o.o.! ..! ..! ! ..! ! ! ! R ! q.r.%.4 Z Z ",
"1 o   O 1 A.F.S.s 1 e ` p q ; r q X k a.0.3.S.Q.'.9X9X'.P / 5.c ..n.n.o o * * * - ] o.o.~ @.o.............! ~ ! ! ~ q.r.$.6 A A ",
",     : C A.Z.F.] _ p r ; - * r ; o , 4 q...d.L Q.'.'.E.( / / Q a !.@ X X * * * - ; e m ....! ..............! ! ! ! 4.q.~ 0 A A ",
"1   . : d.V.V.A._ - q , - ; - r - * * 6 q.h -Xc.U Q.~.Y./ / e.Z.q.n.. & X * - - * - - q ..! ! Q ! Q C ! ! ! C ~ R X.4.q.o.6 A A ",
":     : B.S.F. .r - - - - * * e * r o , $ l ,.F.T E w.8.w.<.B.V !.>   X * * * - - - - , ;.#.! ! Q Q ! ! ! ! ! ! Q ! 4.q.o.6 A A ",
"= h   O V.B.<X` , - ; * * * - e - i X ; 3 n g sXC L P M.} V x.b z     & * * - = ; ; , - ] | Q ~ ! C C Q B ! B R B ! 1.4.~ 6 A A ",
": #.o o F.tXa.p , * - - * - ; ; - r * * q j u 1 : C >.N.d.,.3.l 3   X & * - - - - ; , - b ,.*.C Q ~ ! B B Q R R R C =.4.~ 6 A A ",
": 1.o o V.:Xx.p * * * - * * - - - e e o t r # #.V @.3.-.} l g >   X * & - - , - - - - ; i -.-.C B B ~ ! Q C C B C R <.1.~ 6 A A ",
"1 1.O o yXyXj.s ; - & * * * * - - , i & - - 3 b c..XO.u. Xg : @ X X * ; - - ; - ; ; ; t d  .A.Q B Q Q B ~ ~ B B B ~ =.=.! 0 7 A ",
"u <.. O yXtX&Xs - * * - - - - - - - r - - e r o g x.N.4.,.g M   * * * * - - ; - e ; ; ; d A.f.| M B c Q B Q ~ B B B &.=.! 6 7 A ",
"u o.. g kX3X:X' * * * & & - - - - - e q & ; ; > g } @.@.u u @ & & - & ; ; ; ; ; ; ; q ; d g.g.d.c c B Q Q B B B v T *.=.R 8 7 Z ",
"u x o kXN.dXu.;.* * * * * - - * ; ; - r & - r y l g } O.y k X * & , - - - ; - q ; - ; q d d.,.' Q Q M M B B B M B B =.=.B 4 7 7 ",
": u   hX=XN.x.u.* * * - - - - - ; - ; q ; & ; q 1 @.x.m -.. - & - * * - ; ; - ; ; ; ; ; i :X#X,.Q x Q Q x Q Q v B B &.&.T 6 7 7 ",
"o h X tXB.iX}  X- - & * - - ; * - ; ; ; e - ; w u g | 1 a & - * , & - - ; q - - ; q ; q b N.f.| Q M M M B c B M N N o.X.c 8 A 7 ",
"o M u iX#Xf.&Xu., - & - * - - - ; ; - - q q - - r 1 g m $ - & - - * ; , ; - - - ; ; ; - u g.| m Q c M Q c B v v c B $.o.l 4 7 7 ",
". <.iX@X-.#X] | ; , * * - - - - - - ; - q e q - r T o.y * * - ; - - ; ; - q ; q ; ; ; ; d #XA.b } c c c M B c M v v X.X.N 8 7 7 ",
"o o.kX>X} f.#XB.r , * & & ; - - - - ; ; ; q ; ; e : M 4 & - q ; - - ; q - ; - ; - - ; - | m #Xg.} B B c v N c c c N ..R N 6 7 8 ",
"c O.>XhXF.,.f.,.e q * & - - & = - - ; ; ; ; q - ; ; u O * - ; ; - - - ; ; ; ; - - * t - }  .g.N.Q B v N c M c c v M ..~ v j 8 8 ",
"M R yXZ.,.u.f.| e r * * - - - - - - ; ; - ; q ; ; q : ; q ; ; * - ; ; ; - ; ; - q q - * -.| f.} ,.c N c M c c c c v C R l 0 8 0 ",
"x yX:XF.;.N.,.f.w r * - * - - - * * * - - ; ; ; ; ; <.; * ; ; * - - ; - - - - ; * - q - ] g ,.| | V c v v v v x c M R B l 0 8 j ",
"I 3X|.5Xu.5X| ] w t * * - - * ; * - - - - ; - ; ; q M.* - - ; ; - - - ; ; ; ; ; - - & * ,.| b v.m m c v v x v c c N N B l f 0 0 ",
"I d.dXA.,.} g N.t p * * - - - & - - - - - - ; q ; q n X * ; * * - q ; q ; - ; ; ; q * * g.A.m ,.} ,.x v x v k c l v R T x h f j ",
"v f.5X:XtX| b g.p r - * * = - - & - - - - - ; - ; , k X & - - - * - ; ; - - - - ; * & = m ,.N.f.@.f.v x x v l v c c N N x f x f ",
"%X.XA.:X:Xd *.u p p q * * - - - - - - ; - - ; - - ; 5 X - - q - - - - ; - - ; - - * & = m | d.#Xm O.x x v x k x x c N N x x f f "
};
